<svg width="1280" height="720" viewBox="0 0 1280 720" fill="none" xmlns="http://www.w3.org/2000/svg">
<g clip-path="url(#clip0_2209_3)">
<rect width="1280" height="720" fill="#2148C0"/>
<circle cx="82" cy="718" r="362" fill="#264ECA"/>
<circle cx="82" cy="718" r="286" fill="#244BC5"/>
<circle cx="82" cy="718" r="219" fill="#274FC7"/>
<path d="M615 142C479.4 154.8 387.167 54 358 2L1222 5.5V723.5H1125.5C826.7 685.5 877 534 939.5 463C976 413.167 1042 293.1 1014 211.5C979 109.5 784.5 126 615 142Z" fill="#264ECA"/>
<path d="M702 166C340.4 214.8 224.667 77 212 2H1280V720H941.672C1032.51 755.325 982.959 737.412 936 720H941.672C917.735 710.691 884.05 697.686 838 680C617.2 595.2 746 494 838 454C946.8 406 1004.67 268 1020 205C1030.4 108.2 812.333 138.667 702 166Z" fill="#274FC7"/>
</g>
<defs>
<clipPath id="clip0_2209_3">
<rect width="1280" height="720" fill="white"/>
</clipPath>
</defs>
</svg>
